<svg xmlns="http://www.w3.org/2000/svg" width="546" height="306" viewBox="0 0 546 306">
    <g id="Logo" transform="translate(-242 -231)">
        <g id="Logo-2" data-name="Logo" transform="translate(241.997 230.983)">
            <g id="Laag_1" data-name="Laag 1" transform="translate(0.003 0.017)">
                <path id="Path_1" data-name="Path 1" d="M190.58,21.178q-.946,2.793-4.029,12.914T178.127,58.67q-5.34,14.4-12.937,32.2t-17.078,36.062A384.075,384.075,0,0,1,127,162.677a233.2,233.2,0,0,1-25.151,31.638A143.324,143.324,0,0,1,72.9,217.932a80.57,80.57,0,0,1-32.5,11.462q-16.385,2.093-25.5-2.093T2.317,215.444q-3.426-7.649-1.78-17.8a66.947,66.947,0,0,1,6.882-20.109,82.059,82.059,0,0,1,13.406-18.619A63.722,63.722,0,0,1,38.617,145.51a41.357,41.357,0,0,1,20.049-4.424q10.427.357,20.168,8.26a20.265,20.265,0,0,0-12.81.469,43.271,43.271,0,0,0-12.937,7.448,79.541,79.541,0,0,0-11.857,12.1,90.612,90.612,0,0,0-9.5,14.419,76.085,76.085,0,0,0-5.958,14.545q-2.018,7.1-1.184,12.1a9.809,9.809,0,0,0,4.863,7.329q4.029,2.324,12.1.231,11.656-2.741,23.758-14.657a209.557,209.557,0,0,0,24.2-29.2,398.762,398.762,0,0,0,23.609-38.579q11.507-21.293,21.948-43.39T154.429,49q8.893-21.047,15.774-38.035A80.326,80.326,0,0,0,145.41,21.089a74.038,74.038,0,0,0-17.308,15.1,68.891,68.891,0,0,0-10.948,18.262,85.954,85.954,0,0,0-5.34,19.193,76.971,76.971,0,0,0-.745,17.919,58.486,58.486,0,0,0,2.882,14.538q-11.4-.924-18.746-5.586A29.374,29.374,0,0,1,84.294,88.766a30.662,30.662,0,0,1-3.113-15.707,47.665,47.665,0,0,1,4.752-17.681A78.841,78.841,0,0,1,99.949,35.143a99.382,99.382,0,0,1,20.288-16.385,124.609,124.609,0,0,1,25.62-11.864A147.524,147.524,0,0,1,175.647.265q8.535-.946,12.326,1.72t4.268,5.7a16.094,16.094,0,0,1,0,6.748Q191.526,17.924,190.58,21.178Z" transform="translate(-0.003 -0.017)" fill="#203140"/>
                <path id="Path_2" data-name="Path 2" d="M283.662,118.941a21.889,21.889,0,0,1-6.882,13.957c2.979.745,4.275,1.787,3.8,3.024q-5.459,14.426-11.507,27.557T257.8,190.141q-2.852,7.448-2.733,9.54t2.376.35a48.456,48.456,0,0,0,6.405-6.748q4.141-5,9.488-11.983t11.388-15.238q6.055-8.259,12.222-16.385a10.874,10.874,0,0,1,.6,1.981,13.518,13.518,0,0,1,.231,3.724,21.875,21.875,0,0,1-1.065,5.213,19.646,19.646,0,0,1-3.56,6.286q-7.351,9.541-12.929,16.631t-10.427,12.914q-4.856,5.824-9.846,10.814t-11.172,10.121a16.333,16.333,0,0,1-6.882,3.6,12.266,12.266,0,0,1-6.286,0,8.252,8.252,0,0,1-4.387-3.024,7.8,7.8,0,0,1-1.423-5.467,51.862,51.862,0,0,1,.946-5.958c.477-2.234,1.1-4.692,1.9-7.329q-3.8,4.178-7.947,8.14a91.167,91.167,0,0,1-8.192,6.978,49.276,49.276,0,0,1-7.82,4.878,15.484,15.484,0,0,1-6.643,1.862q-5.683,0-8.535-3.374t-2.614-8.937a79.908,79.908,0,0,1,3.441-19.893A151.144,151.144,0,0,1,203,166.308a173.117,173.117,0,0,1,12.81-22.447,127.558,127.558,0,0,1,15.9-19.424A80.949,80.949,0,0,1,249.5,110.823a36.2,36.2,0,0,1,18.5-4.886,21.867,21.867,0,0,1,11.276,3.374Q284.139,112.416,283.662,118.941ZM249.738,137.56a28.733,28.733,0,0,0,11.983-6.174,24.763,24.763,0,0,0,7-10.121,6.7,6.7,0,0,0-.238-5.213q-1.184-2.666-5.958-.812-4.282,1.631-9.138,7.448a127.692,127.692,0,0,0-9.965,13.964q-5.1,8.148-9.965,17.562t-8.632,18.351q-3.8,8.937-6.293,16.385a61.721,61.721,0,0,0-2.987,11.618c-.32,2.175.32,3.024,1.9,2.562a18.278,18.278,0,0,0,5.817-3.493,77.08,77.08,0,0,0,7.448-7.1q4.037-4.3,7.12-8.259,4.029-10.926,9.131-22.1t9.377-20.7q-5.184-.439-6.6-3.925Z" transform="translate(-48.719 -27.049)" fill="#203140"/>
                <path id="Path_3" data-name="Path 3" d="M321.947,203.765q-.231,4.424,1.9,6.167a8.192,8.192,0,0,0,4.268,1.981,10.34,10.34,0,0,0,8.073-2.793,39.382,39.382,0,0,0,6.167-6.517q3.783-5.117,2.979-9.771a25.814,25.814,0,0,0-3.8-9.3,79.8,79.8,0,0,0-7.232-9.54,81.571,81.571,0,0,1-7.6-10.121,36.984,36.984,0,0,1-4.759-11.052q-1.415-5.809,1.423-12.564a60.767,60.767,0,0,1,17.8-24.89,41.774,41.774,0,0,1,26.566-9.771q25.628-.223,24.443,21.866a29.21,29.21,0,0,1-5.586,15.677,36.963,36.963,0,0,1-11.626,10.814,20.907,20.907,0,0,1-12.81,3.031q-6.286-.693-8.9-7.679a18.441,18.441,0,0,0,6.882-3.6,37.982,37.982,0,0,0,6.048-6.167,42.012,42.012,0,0,0,4.767-7.649,55.176,55.176,0,0,0,3.2-8.14q2.145-7.448-.35-8.26t-6.882,1.974a62.391,62.391,0,0,0-9.377,7.559,78.029,78.029,0,0,0-7.835,8.5q-4.037,5.347-4.148,9.682a13.853,13.853,0,0,0,2.234,8.029,44.977,44.977,0,0,0,6.048,7.448,89.374,89.374,0,0,1,7,8.029,34.862,34.862,0,0,1,5.213,9.682,24.587,24.587,0,0,1,.745,12.333,40.091,40.091,0,0,1-4.506,12.661,37.887,37.887,0,0,1-8.3,10.241,41.536,41.536,0,0,1-11.507,6.979,36.807,36.807,0,0,1-14.151,2.674,32.219,32.219,0,0,1-12.453-2.234,19.677,19.677,0,0,1-8.423-6.278,18.694,18.694,0,0,1-3.679-9.421,22.41,22.41,0,0,1,2.018-11.4,24.012,24.012,0,0,1,7.12-9.421,23.043,23.043,0,0,1,9.846-4.886,14.553,14.553,0,0,1,9.742,1.259q4.625,2.324,7,9.071a34.885,34.885,0,0,0-12.46,5.958Q321.708,197.948,321.947,203.765Z" transform="translate(-77.515 -26.962)" fill="#203140"/>
                <path id="Path_4" data-name="Path 4" d="M439.262,120.635l2.845-2.793a49.229,49.229,0,0,1,12.251-8.252,35.95,35.95,0,0,1,12.453-3.374q6.412-.231,8.9,4.536t2.018,12.8a84.9,84.9,0,0,1-3.56,18.493,167.476,167.476,0,0,1-7.954,21.286,217.154,217.154,0,0,1-11.03,21.293,149.819,149.819,0,0,1-12.81,18.619,73.734,73.734,0,0,1-13.525,13.145q-6.882,5-13.048,4.767a9.682,9.682,0,0,1-8.364-4.871,26.067,26.067,0,0,1-3.56-10.7l-19.453,46.533a128.468,128.468,0,0,1-6.033,13.7,31.7,31.7,0,0,1-5.34,7.679,13.257,13.257,0,0,1-5.213,3.374,18.961,18.961,0,0,1-5.69.819,5.757,5.757,0,0,1-5.459-3.843q-1.415-3.6,1.184-10.352,2.137-6.055,6.763-17.45t10.561-25.59q5.958-14.151,12.661-29.791t13.324-30.23q6.524-14.657,12.222-26.871t9.488-19.662a12.99,12.99,0,0,1,6.048-6.048,16.281,16.281,0,0,1,7.12-1.49,10.755,10.755,0,0,1,5.69,1.631c1.49,1.013,2.018,2.056,1.542,3.143Zm13.525-.931a10.211,10.211,0,0,0-1.78.119,1.855,1.855,0,0,0-.953.462l-.827.819c-.32.313-.871.745-1.661,1.393a15.343,15.343,0,0,0-3.441,3.6,17.7,17.7,0,0,0-2.376,4.886,10.427,10.427,0,0,0-.35,5.124,6.562,6.562,0,0,0,2.607,4.066q-5.467,1.631-8.066.7a6.532,6.532,0,0,1-3.8-3.255L413.4,182.518a84.259,84.259,0,0,0-2.614,8.61,29.687,29.687,0,0,0-.946,6.748,8.789,8.789,0,0,0,.946,4.424,2.882,2.882,0,0,0,3.083,1.393q2.852-.223,7.947-6.4a125.308,125.308,0,0,0,10.68-15.469q5.578-9.31,10.911-20.012a183.217,183.217,0,0,0,8.669-20.012,67.591,67.591,0,0,0,3.918-15.588Q456.593,119.928,452.787,119.7Z" transform="translate(-90.912 -27.12)" fill="#203140"/>
                <path id="Path_5" data-name="Path 5" d="M538.984,218.458a27.1,27.1,0,0,1-8.893,3.255,23.587,23.587,0,0,1-10.918-.231,17.778,17.778,0,0,1-9.369-6.4q-4.037-4.99-4.506-15.238a61.8,61.8,0,0,1,2.607-20,132.346,132.346,0,0,1,21.233-42.809,103.457,103.457,0,0,1,16.02-17.219A63.306,63.306,0,0,1,562.95,109a31.69,31.69,0,0,1,18.269-1.743,13.942,13.942,0,0,1,6.643,3.135,13.643,13.643,0,0,1,3.441,4.886,16.564,16.564,0,0,1,1.184,5.355,27.852,27.852,0,0,1-.119,4.536,44.122,44.122,0,0,1-8.066,20.109,76.792,76.792,0,0,1-16.251,17.13,69.941,69.941,0,0,1-19.223,10.7q-9.838,3.486-16.72.693-4.983,13.257-5.459,22.343-.246,8.148,3.083,10.591c2.234,1.624,5.139,1.825,8.781.581s7.865-3.724,12.661-7.448A149.854,149.854,0,0,0,566.034,186.6a175.65,175.65,0,0,0,14.247-17.227q7.351-10,14.948-19.774a11.027,11.027,0,0,0,.477,1.743,13.212,13.212,0,0,1,.477,3.836,18.139,18.139,0,0,1-.953,5.355,20.265,20.265,0,0,1-3.8,6.517q-7.351,9.541-13.875,17.13t-12.81,13.838A149.309,149.309,0,0,1,552.166,209.3,128.1,128.1,0,0,1,538.984,218.458ZM571.493,115.4q-4.282,1.631-9.138,6.628a91.92,91.92,0,0,0-9.727,12.1,178.923,178.923,0,0,0-9.369,15.357q-4.513,8.267-8.066,16.638a54.167,54.167,0,0,0,12.929-7.329,106.253,106.253,0,0,0,12.661-11.052,82.671,82.671,0,0,0,10.233-12.527,32.43,32.43,0,0,0,5.213-12.1c.156-.931.313-1.936.469-3.024a7.872,7.872,0,0,0-.112-3.031,2.89,2.89,0,0,0-1.549-1.974Q573.861,114.466,571.493,115.4Z" transform="translate(-128.952 -27.229)" fill="#203140"/>
                <path id="Path_6" data-name="Path 6" d="M633.125,155.206l19.93-28.845c.477-.618,1.49-1.981,3.083-4.074a67.035,67.035,0,0,1,5.809-6.628,53.663,53.663,0,0,1,7.239-6.167,11.487,11.487,0,0,1,7.358-2.443q4.737.469,5.958,3.143a12.281,12.281,0,0,1,.946,5.958q-.238,3.955-2.979,10.933t-6.048,14.769q-3.329,7.8-6.763,15.588a126,126,0,0,0-5.1,13.145q-4.268,10.941-2.726,13.026t6.643-1.974a104.562,104.562,0,0,0,12.661-12.8q7.567-8.729,15.424-19.193a11.493,11.493,0,0,0,.469,1.743,10.992,10.992,0,0,1,.358,3.836,21.307,21.307,0,0,1-4.625,11.872,149.785,149.785,0,0,1-20.66,22.194q-10.2,8.721-21.353,8.721a11.723,11.723,0,0,1-8.893-3.6q-3.441-3.6-2.234-11.983a28.058,28.058,0,0,1,1.9-6.628c1.1-2.867,2.376-5.958,3.8-9.31l4.268-10q2.137-5,3.8-8.937,2.607-5.817,1.78-6.167t-3.083,1.974a64.98,64.98,0,0,0-4.982,5.958,41.709,41.709,0,0,0-3.679,5.467q-1.9,3.262-4.625,7.329t-5.578,8.379q-2.845,4.3-5.69,8.6t-5.213,8.029l-3.322,8.61q-3.567,8.6-6.286,13.726a32.124,32.124,0,0,1-5.34,7.679,12.244,12.244,0,0,1-5.1,3.255,20.853,20.853,0,0,1-5.578.7,5.75,5.75,0,0,1-5.452-3.843q-1.43-3.6.946-10.121,3.329-9.295,7.828-20.816t9.727-23.736q5.213-12.214,11.038-24.659t11.507-23.378a12.869,12.869,0,0,1,6.048-6.286,16.281,16.281,0,0,1,7.12-1.49,10.114,10.114,0,0,1,5.69,1.75q2.234,1.631,1.542,3.255Z" transform="translate(-150.255 -27.26)" fill="#203140"/>
                <path id="Path_7" data-name="Path 7" d="M445.152,270.612q-.454,1.355-1.966,6.293t-4.1,11.961q-2.607,7.038-6.3,15.707t-8.334,17.577a185.6,185.6,0,0,1-10.293,17.413,113.493,113.493,0,0,1-12.2,15.424,69.687,69.687,0,0,1-14.151,11.507,39.264,39.264,0,0,1-15.849,5.616q-7.984,1.013-12.453-1.02a11.663,11.663,0,0,1-6.13-5.787,14.9,14.9,0,0,1-.864-8.677,32.479,32.479,0,0,1,3.352-9.809,39.979,39.979,0,0,1,6.532-9.071,31.08,31.08,0,0,1,8.677-6.517,20.168,20.168,0,0,1,9.771-2.16,16.319,16.319,0,0,1,9.831,4.029,9.906,9.906,0,0,0-6.249.223,21.189,21.189,0,0,0-6.3,3.627,39.151,39.151,0,0,0-5.779,5.9,43.938,43.938,0,0,0-4.625,7.031,37.149,37.149,0,0,0-2.9,7.09,13.636,13.636,0,0,0-.573,5.9,4.8,4.8,0,0,0,2.368,3.575q1.966,1.125,5.9.112,5.668-1.363,11.566-7.15a99.8,99.8,0,0,0,11.8-14.233,193.64,193.64,0,0,0,11.537-18.813q5.608-10.382,10.695-21.151t9.429-21.04q4.335-10.256,7.693-18.545a39.36,39.36,0,0,0-12.088,4.938,36,36,0,0,0-8.446,7.373,33.664,33.664,0,0,0-5.3,8.893,41.886,41.886,0,0,0-2.6,9.354,37.156,37.156,0,0,0-.35,8.736A28.606,28.606,0,0,0,407.839,312a19.841,19.841,0,0,1-9.131-2.718,14.4,14.4,0,0,1-5.325-5.727,14.9,14.9,0,0,1-1.49-7.656,23.334,23.334,0,0,1,2.316-8.617,38.415,38.415,0,0,1,6.822-9.868,48.365,48.365,0,0,1,9.861-7.991,60.534,60.534,0,0,1,12.49-5.787A71.629,71.629,0,0,1,437.9,260.4q4.171-.447,6.01.849a4.469,4.469,0,0,1,2.085,2.778,7.91,7.91,0,0,1,0,3.292C445.756,268.452,445.48,269.547,445.152,270.612Z" transform="translate(-89.899 -66.446)" fill="#203140"/>
                <path id="Path_8" data-name="Path 8" d="M490.565,318.26a10.657,10.657,0,0,1-3.351,6.8c1.49.38,2.078.871,1.847,1.49q-2.659,7.038-5.608,13.443t-5.5,12.944a15.692,15.692,0,0,0-1.326,4.655c.045.685.417.745,1.154.164a23.512,23.512,0,0,0,3.121-3.284c1.348-1.624,2.9-3.575,4.625-5.839s3.59-4.744,5.556-7.448,3.947-5.347,5.958-7.991a5.121,5.121,0,0,1,.283.961,6.433,6.433,0,0,1,.119,1.817,10.734,10.734,0,0,1-.521,2.547,9.5,9.5,0,0,1-1.735,3.061q-3.582,4.662-6.3,8.111t-5.079,6.331q-2.376,2.838-4.8,5.273t-5.437,4.938a8.029,8.029,0,0,1-3.352,1.758,6.092,6.092,0,0,1-3.068,0,4.074,4.074,0,0,1-2.138-1.49,3.828,3.828,0,0,1-.693-2.666,25.093,25.093,0,0,1,.462-2.89q.343-1.639.924-3.575c-1.229,1.363-2.525,2.689-3.873,3.97a44.049,44.049,0,0,1-3.992,3.4,24.747,24.747,0,0,1-3.813,2.383,7.6,7.6,0,0,1-3.24.9,5.139,5.139,0,0,1-4.163-1.639,6.152,6.152,0,0,1-1.274-4.372,39.228,39.228,0,0,1,1.676-9.682,74.077,74.077,0,0,1,4.223-11,84.221,84.221,0,0,1,6.249-10.941,62.107,62.107,0,0,1,7.738-9.481,39.472,39.472,0,0,1,8.677-6.628,17.5,17.5,0,0,1,9.019-2.383,10.65,10.65,0,0,1,5.5,1.646A4.759,4.759,0,0,1,490.565,318.26Zm-16.541,9.071a13.927,13.927,0,0,0,5.839-2.979,12.035,12.035,0,0,0,3.418-4.93,3.284,3.284,0,0,0-.119-2.555q-.581-1.3-2.89-.395A11.9,11.9,0,0,0,475.8,320.1a61.8,61.8,0,0,0-4.856,6.807q-2.495,3.97-4.856,8.565t-4.223,8.937q-1.854,4.357-3.068,7.991a30.605,30.605,0,0,0-1.445,5.668c-.156,1.065.156,1.49.923,1.251a9.02,9.02,0,0,0,2.838-1.7,37.646,37.646,0,0,0,3.642-3.463q1.966-2.1,3.471-4.029,1.966-5.333,4.469-10.769t4.565-10.092q-2.547-.238-3.24-1.936Z" transform="translate(-113.661 -79.619)" fill="#203140"/>
                <path id="Path_9" data-name="Path 9" d="M520.842,321.114a84.241,84.241,0,0,1,6.129-8.334,43.69,43.69,0,0,1,5.035-5.1,14.516,14.516,0,0,1,4.1-2.555,9.786,9.786,0,0,1,3.352-.678,5.519,5.519,0,0,1,4.744,2.435,8.133,8.133,0,0,1,1.616,5.161,24.68,24.68,0,0,1-1.676,7.545,37.878,37.878,0,0,1-4.469,8.446,46.916,46.916,0,0,1-6.882,7.887,30.215,30.215,0,0,1-8.848,5.727,12.185,12.185,0,0,0-.343,4.871,11.174,11.174,0,0,0,1.043,3.351,5.213,5.213,0,0,0,1.49,1.869c.536.38.924.529,1.154.454q.8-.112,3.24-2.726t5.668-6.576q3.232-3.962,6.934-8.729t7.06-9.19a5.348,5.348,0,0,0,.231.849,6.6,6.6,0,0,1,.231,1.877,9.5,9.5,0,0,1-.462,2.659,9.787,9.787,0,0,1-1.854,3.232q-3.724,4.543-6.36,8.058c-1.773,2.339-3.471,4.469-5.087,6.345s-3.24,3.649-4.863,5.273-3.426,3.277-5.429,4.938q-3.359,2.823-6.591,1.981t-4.744-4.707a21.654,21.654,0,0,1-.983-5.668,25.613,25.613,0,0,1,1.326-9.183,76.962,76.962,0,0,0,7.634-5.444,39.374,39.374,0,0,0,4.915-4.767,29.122,29.122,0,0,0,3.068-4.312q1.147-2.033,2.078-4.081c1.423-3.18,2.167-5.5,2.167-6.971s-.372-2.234-1.214-2.272-1.989.514-3.419,1.646a22.344,22.344,0,0,0-4.215,4.647q-1.49,1.936-3.411,4.878t-3.813,6.062q-1.907,3.121-3.724,6.062t-3.121,4.99l-2.659,6.353a62.3,62.3,0,0,1-3.121,6.807,16.922,16.922,0,0,1-2.659,3.724,6,6,0,0,1-2.488,1.586,9.942,9.942,0,0,1-2.718.343,2.8,2.8,0,0,1-2.659-1.869q-.7-1.758.462-4.819,1-3.068,3.143-8.282t4.856-11.738q2.718-6.465,5.779-13.614t6.077-13.778q2.979-6.636,5.668-12.3t4.625-9.3a6.338,6.338,0,0,1,2.979-2.979,7.85,7.85,0,0,1,3.411-.745,5.214,5.214,0,0,1,2.718.8c.745.492.983,1.005.745,1.534Z" transform="translate(-126.592 -71.592)" fill="#203140"/>
                <path id="Path_10" data-name="Path 10" d="M565.082,368.452q-3.932,0-5.839-2.435a11.827,11.827,0,0,1-2.234-6.412,29.191,29.191,0,0,1,.812-9.012,57.653,57.653,0,0,1,3.471-10.323,74.545,74.545,0,0,1,5.526-10.352,53.332,53.332,0,0,1,7.232-9.012,36.323,36.323,0,0,1,8.438-6.353,19.074,19.074,0,0,1,9.079-2.383q4.752,0,6.42,3.515t.983,9.019a48.977,48.977,0,0,1-3.352,12.08,77.034,77.034,0,0,1-6.606,12.728,7.508,7.508,0,0,0,4.163-2.1,40.415,40.415,0,0,0,4.565-4.647q2.234-2.659,4.223-5.333t3.24-4.253a5.047,5.047,0,0,0,.171.8,6.215,6.215,0,0,1,.119,1.817,11.918,11.918,0,0,1-.521,2.659,10.715,10.715,0,0,1-1.735,3.232q-1.393,2.041-2.778,3.724a56.046,56.046,0,0,1-4.1,4.647,21.6,21.6,0,0,1-3.642,3.061q-4.513,3.18-8.446,2.979a45.734,45.734,0,0,1-9.369,8.937A17.232,17.232,0,0,1,565.082,368.452Zm3.24-6.576c1.229-.074,2.681-1.08,4.335-2.979a50.527,50.527,0,0,0,5.146-7.448,16.965,16.965,0,0,1-1.035-7.031,10.032,10.032,0,0,1,1.095-4.253,8.237,8.237,0,0,1,2.368-2.89,4.587,4.587,0,0,1,2.718-1.02,2.51,2.51,0,0,1,2.145,1.132q1.84-4.089,3.232-7.939c.931-2.569,1.639-4.856,2.145-6.859a21.108,21.108,0,0,0,.745-4.826c0-1.207-.35-1.81-1.043-1.81q-2.428,0-5.549,3.4a56.238,56.238,0,0,0-6.308,8.557,107.7,107.7,0,0,0-5.958,11.119,92.337,92.337,0,0,0-4.4,11.052,32.822,32.822,0,0,0-1.728,8.505Q566.124,362,568.321,361.876Z" transform="translate(-142.151 -79.688)" fill="#203140"/>
                <path id="Path_11" data-name="Path 11" d="M632.238,310.908a3.058,3.058,0,0,1,.581-.626,8.751,8.751,0,0,0,.693-.626,23.959,23.959,0,0,1,5.958-4.022,17.7,17.7,0,0,1,6.077-1.646,4.268,4.268,0,0,1,4.335,2.234,11.917,11.917,0,0,1,.983,6.241,40.967,40.967,0,0,1-1.735,9.012,82.121,82.121,0,0,1-3.873,10.375,106.462,106.462,0,0,1-5.377,10.382,72.25,72.25,0,0,1-6.226,9.049,35.972,35.972,0,0,1-6.591,6.405,10.248,10.248,0,0,1-6.36,2.324,4.6,4.6,0,0,1-3.992-2.324,14,14,0,0,1-1.787-4.93,28.667,28.667,0,0,1-2.2,3.858,9.986,9.986,0,0,1-2.026,2.234,4.617,4.617,0,0,1-2.085.9,14,14,0,0,1-2.234.171,2.808,2.808,0,0,1-2.659-1.869q-.693-1.758.462-4.93t3.18-8.341q2.145-5.273,4.863-11.678t5.72-13.555q2.979-7.142,5.958-13.778t5.608-12.3q2.659-5.675,4.513-9.3A6.338,6.338,0,0,1,637,281.184a7.969,7.969,0,0,1,3.471-.745,5.214,5.214,0,0,1,2.771.8c.745.491.983,1.005.745,1.534Zm6.472-.343a4.883,4.883,0,0,0-.864.06.871.871,0,0,0-.462.223c-.119.119-.253.246-.4.4a8.137,8.137,0,0,1-.812.678,7.447,7.447,0,0,0-1.676,1.758,8.64,8.64,0,0,0-1.162,2.383,5.056,5.056,0,0,0-.171,2.495,3.232,3.232,0,0,0,1.274,1.981,7.522,7.522,0,0,1-3.873.283,2.651,2.651,0,0,1-1.795-1.415l-10.062,24.5a15.7,15.7,0,0,0-.864,5.616c.112,1.49.745,2.137,1.907,1.981q1.385-.112,3.873-3.113a62.7,62.7,0,0,0,5.213-7.544q2.718-4.536,5.318-9.757a88.643,88.643,0,0,0,4.223-9.749,32.668,32.668,0,0,0,1.907-7.6Q640.565,310.685,638.71,310.566Z" transform="translate(-154.023 -71.589)" fill="#203140"/>
                <path id="Path_12" data-name="Path 12" d="M666.394,359.6a3.352,3.352,0,0,0,.924,2.979,3.992,3.992,0,0,0,2.085.968,5.072,5.072,0,0,0,3.932-1.363,18.711,18.711,0,0,0,2.979-3.18,6.112,6.112,0,0,0,1.445-4.759,12.565,12.565,0,0,0-1.847-4.536,39.387,39.387,0,0,0-3.53-4.655,40.214,40.214,0,0,1-3.724-4.93,17.876,17.876,0,0,1-2.309-5.385,9.682,9.682,0,0,1,.693-6.122,29.634,29.634,0,0,1,8.714-12.1,20.369,20.369,0,0,1,12.952-4.759q12.49-.112,11.916,10.658a14.15,14.15,0,0,1-2.718,7.656,17.971,17.971,0,0,1-5.66,5.273,10.241,10.241,0,0,1-6.249,1.49c-2.041-.231-3.485-1.49-4.335-3.724a8.886,8.886,0,0,0,3.352-1.758,18.163,18.163,0,0,0,2.979-2.979,20.407,20.407,0,0,0,2.316-3.724,27.791,27.791,0,0,0,1.557-3.97c.693-2.413.641-3.761-.171-4.022s-1.929.052-3.351.961a30.413,30.413,0,0,0-4.573,3.724,37.775,37.775,0,0,0-3.843,4,8.54,8.54,0,0,0-2.026,4.707,6.755,6.755,0,0,0,1.1,3.91,21.457,21.457,0,0,0,2.979,3.627,43.6,43.6,0,0,1,3.411,3.917,17.055,17.055,0,0,1,2.54,4.707,11.918,11.918,0,0,1,.35,6.01,19.531,19.531,0,0,1-2.2,6.182,18.373,18.373,0,0,1-4.052,4.99,20.2,20.2,0,0,1-5.608,3.4,18.083,18.083,0,0,1-6.882,1.3,15.715,15.715,0,0,1-6.07-1.08,9.555,9.555,0,0,1-4.1-3.061,9.1,9.1,0,0,1-1.795-4.6,10.911,10.911,0,0,1,.983-5.556,11.7,11.7,0,0,1,3.471-4.6,11.261,11.261,0,0,1,4.8-2.383,7.157,7.157,0,0,1,4.744.626,7.393,7.393,0,0,1,3.411,4.424,16.989,16.989,0,0,0-6.07,2.89A5.586,5.586,0,0,0,666.394,359.6Z" transform="translate(-167.824 -79.583)" fill="#203140"/>
                <path id="Path_13" data-name="Path 13" d="M298.047,274.323a11.611,11.611,0,0,1-11.335,5.459q-6.07-.745-12.8-1.311-10.926-.871-22.954-1.162t-24.756.06q-12.728.372-25.419,1.207t-25.024,2.234q-12.333,1.385-23.572,3.15t-21.047,4.126A130.117,130.117,0,0,1,95,291.617c6.7-2.979,21.6-14.151,25.322-16.385,10.427-7.448,47.889-9.92,77.136-10S260.235,268.209,298.047,274.323Z" transform="translate(-24.249 -67.707)" fill="#203140"/>
            </g>
        </g>
    </g>
</svg>
