<svg xmlns="http://www.w3.org/2000/svg" width="768.024" height="434.205" viewBox="0 0 768.024 434.205">
    <g id="Wave_right" data-name="Wave right" transform="translate(-598.407 -333.795)">
        <path id="Path_17" data-name="Path 17" d="M89.7,457.988s163.408,10.178,252.57-117.041S474.576,183.2,581,183.2s164.211-23.108,199.925-55.263,76.372-103.94,76.372-103.94L89.7,23.976Z" transform="translate(1455.7 791.976) rotate(180)" fill="#fff" opacity="0.22"/>
        <path id="Path_18" data-name="Path 18" d="M121.7,457.492s131.408,10.674,220.57-116.545S475.906,200.311,582.326,200.311s173.313-22.948,248.433-93.059c31.307-32.4,48.416-64.276,48.416-64.276l-757.476,1Z" transform="translate(1487.7 810.976) rotate(180)" fill="#fff" opacity="0.72"/>
        <path id="Path_14" data-name="Path 14" d="M809,730.992s73.537-136.212,294.146-149.01,238.313-57.286,267.406-113.358C1419.286,386.255,1456.4,337.709,1554,336.795c.97,53.647,0,394.205,0,394.205Z" transform="translate(-188 37)" fill="#fff"/>
    </g>
</svg>
