<svg xmlns="http://www.w3.org/2000/svg" width="809" height="450.93" viewBox="0 0 809 450.93">
    <g id="Wave_left" data-name="Wave left" transform="translate(0 29.328)">
        <path id="Path_19" data-name="Path 19" d="M809,768s74.3-149,297.21-163,240.8-62.665,270.191-124c49.241-90.1,87.1-143.205,185.721-144.205.98,58.683.1,431.457.1,431.457Z" transform="translate(1562.585 739.046) rotate(180)" fill="#1252a6" opacity="0.72"/>
        <path id="Path_16" data-name="Path 16" d="M809,786.784s79.766-155.491,319.066-170.1,258.5-65.394,290.06-129.4c52.862-94.027,94-149.794,199.874-150.838V786.885Z" transform="translate(1618 758.046) rotate(180)" fill="#1252a6" opacity="0.22"/>
        <path id="Path_15" data-name="Path 15" d="M28.161,344.462s100.763,8.189,165.225-95.551S289.04,120.274,365.978,120.274,536.491,65.291,561.444,19.646s53.514-48.807,53.514-48.807L28-28.84Z" transform="translate(-28 -0.167)" fill="#1252a6"/>
    </g>
</svg>
